<svg width="99" height="110" viewBox="0 0 99 110" fill="none" xmlns="http://www.w3.org/2000/svg">
<rect y="15" width="99" height="81" rx="5" fill="white"/>
<path d="M66.116 85.216C64.292 85.216 62.9493 84.76 62.088 83.848C61.2267 82.8853 60.492 81.4667 59.884 79.592C59.276 77.6667 58.0853 72.5493 56.312 64.24C55.1467 65.2533 53.2467 65.8107 50.612 65.912L37.616 66.368C34.5253 73.9173 32.2453 80.6307 30.776 86.508C25.912 84.7853 23.48 82.8347 23.48 80.656C23.48 79.6933 24.9493 76.096 27.888 69.864C30.8267 63.632 34.1453 56.564 37.844 48.66C41.5933 40.7053 44.1267 34.9293 45.444 31.332L46.812 27.608C46.4067 26.8987 45.4187 25.6067 43.848 23.732C45.672 23.124 47.2427 22.82 48.56 22.82C49.928 22.82 51.0427 22.9213 51.904 23.124C52.816 23.3267 53.6013 23.6813 54.26 24.188C54.9693 24.644 55.5773 25.1253 56.084 25.632C56.6413 26.1387 57.148 26.8987 57.604 27.912C58.06 28.8747 58.44 29.7613 58.744 30.572C59.048 31.332 59.3773 32.4213 59.732 33.84C60.1373 35.2587 60.4413 36.5 60.644 37.564C60.8973 38.5773 61.2013 40.0213 61.556 41.896C61.9613 43.72 62.3667 45.4933 62.772 47.216C63.1773 48.9387 63.8867 52.232 64.9 57.096C65.9133 61.9093 66.6987 65.532 67.256 67.964C67.864 70.3453 68.7 73.0307 69.764 76.02C70.8787 79.0093 72.044 81.3653 73.26 83.088C70.3213 84.5067 67.94 85.216 66.116 85.216ZM50.308 37.716C49.5987 39.3373 48.028 42.808 45.596 48.128C43.2147 53.3973 41.3653 57.6027 40.048 60.744H55.628C53.2467 49.8 51.4733 42.124 50.308 37.716Z" fill="black"/>
</svg>
