<svg width="82" height="82" viewBox="0 0 82 82" fill="none" xmlns="http://www.w3.org/2000/svg">
<circle cx="41" cy="41" r="41" fill="white"/>
<path d="M41 63C28.8468 63 19 53.1532 19 41C19 28.8468 28.8468 19 41 19C53.1532 19 63 28.8468 63 41C63 53.1532 53.1532 63 41 63ZM51.2903 37.0968H41V30.8073C41 29.8581 39.8468 29.379 39.1815 30.0532L29.0419 40.246C28.625 40.6629 28.625 41.3282 29.0419 41.7452L39.1815 51.9379C39.8556 52.6121 41 52.1331 41 51.1839V44.9032H51.2903C51.8758 44.9032 52.3548 44.4242 52.3548 43.8387V38.1613C52.3548 37.5758 51.8758 37.0968 51.2903 37.0968Z" fill="black"/>
</svg>
