<svg width="82" height="82" viewBox="0 0 82 82" fill="none" xmlns="http://www.w3.org/2000/svg">
<circle cx="41" cy="41" r="41" fill="white"/>
<path d="M60.5 17H21.5C19.0156 17 17 19.3036 17 22.1429V59.8571C17 62.6964 19.0156 65 21.5 65H60.5C62.9844 65 65 62.6964 65 59.8571V22.1429C65 19.3036 62.9844 17 60.5 17ZM52.6625 48.125C53.1125 48.6393 53.1125 49.475 52.6625 49.9893L48.8656 54.3286C48.4156 54.8429 47.6844 54.8429 47.2344 54.3286L41 47.1393L34.7656 54.3286C34.3156 54.8429 33.5844 54.8429 33.1344 54.3286L29.3375 49.9893C28.8875 49.475 28.8875 48.6393 29.3375 48.125L35.6281 41L29.3375 33.875C28.8875 33.3607 28.8875 32.525 29.3375 32.0107L33.1344 27.6714C33.5844 27.1571 34.3156 27.1571 34.7656 27.6714L41 34.8607L47.2344 27.6714C47.6844 27.1571 48.4156 27.1571 48.8656 27.6714L52.6625 32.0107C53.1125 32.525 53.1125 33.3607 52.6625 33.875L46.3719 41L52.6625 48.125Z" fill="black"/>
</svg>
