<svg width="69" height="54" viewBox="0 0 69 54" fill="none" xmlns="http://www.w3.org/2000/svg">
<path d="M33.5852 14.009L11.5009 32.3144V52.0712C11.5009 52.5828 11.7028 53.0734 12.0622 53.4351C12.4217 53.7968 12.9091 54 13.4174 54L26.8402 53.965C27.3469 53.9625 27.8319 53.7582 28.1892 53.3967C28.5466 53.0353 28.7472 52.5461 28.7472 52.0363V40.4985C28.7472 39.9869 28.9491 39.4964 29.3085 39.1346C29.6679 38.7729 30.1554 38.5697 30.6637 38.5697H38.3298C38.8381 38.5697 39.3255 38.7729 39.685 39.1346C40.0444 39.4964 40.2463 39.9869 40.2463 40.4985V52.0278C40.2455 52.2816 40.2945 52.5331 40.3905 52.7678C40.4864 53.0025 40.6275 53.2158 40.8055 53.3956C40.9836 53.5753 41.1951 53.7179 41.428 53.8152C41.6609 53.9125 41.9106 53.9626 42.1628 53.9626L55.5808 54C56.0891 54 56.5766 53.7968 56.936 53.4351C57.2954 53.0734 57.4974 52.5828 57.4974 52.0712V32.3012L35.4179 14.009C35.1583 13.7984 34.8349 13.6836 34.5015 13.6836C34.1681 13.6836 33.8448 13.7984 33.5852 14.009ZM68.4694 26.4509L58.4556 18.1439V1.44659C58.4556 1.06293 58.3042 0.694985 58.0346 0.423697C57.7651 0.152408 57.3995 0 57.0182 0H50.3104C49.9292 0 49.5636 0.152408 49.294 0.423697C49.0245 0.694985 48.873 1.06293 48.873 1.44659V10.1997L38.1489 1.32001C37.1198 0.467706 35.8284 0.00170378 34.4955 0.00170378C33.1627 0.00170378 31.8713 0.467706 30.8422 1.32001L0.521651 26.4509C0.3761 26.572 0.25568 26.7207 0.167271 26.8886C0.0788622 27.0566 0.024197 27.2404 0.00639896 27.4296C-0.011399 27.6188 0.00801903 27.8096 0.0635436 27.9913C0.119068 28.1729 0.209611 28.3418 0.329999 28.4882L3.38445 32.2252C3.50451 32.3721 3.65219 32.4938 3.81902 32.5832C3.98585 32.6726 4.16857 32.728 4.35672 32.7463C4.54486 32.7645 4.73473 32.7452 4.91546 32.6895C5.09619 32.6339 5.26424 32.5428 5.40997 32.4217L33.5852 9.0665C33.8448 8.85593 34.1681 8.74111 34.5015 8.74111C34.8349 8.74111 35.1583 8.85593 35.4179 9.0665L63.5943 32.4217C63.7398 32.5429 63.9076 32.634 64.088 32.6899C64.2685 32.7457 64.4582 32.7653 64.6462 32.7474C64.8342 32.7295 65.0168 32.6744 65.1837 32.5855C65.3505 32.4965 65.4983 32.3753 65.6186 32.2288L68.6731 28.4918C68.7933 28.3445 68.8835 28.1748 68.9384 27.9924C68.9932 27.8099 69.0117 27.6184 68.9928 27.4287C68.9739 27.2391 68.9179 27.0551 68.8281 26.8873C68.7383 26.7194 68.6164 26.5711 68.4694 26.4509Z" fill="black"/>
</svg>
