<svg width="63" height="55" viewBox="0 0 63 55" fill="none" xmlns="http://www.w3.org/2000/svg">
<path d="M53.201 11.374C44.7868 5.85201 33.6032 4.59508 24.3129 6.26048C13.919 -3.69712 2.27171 0.882984 0 2.19966C0 2.19966 7.99311 8.94596 6.69483 14.8547C-2.76827 24.4364 1.73031 35.1045 6.69483 40.1419C7.99311 46.0507 0 52.797 0 52.797C2.24984 54.118 13.8654 58.684 24.3129 48.7774C33.5824 50.432 44.766 49.1859 53.201 43.6542C66.245 35.3826 66.2877 19.6879 53.201 11.3729V11.374ZM32.1759 43.6009C28.9229 43.6102 25.6829 43.1949 22.5389 42.3657L20.3765 44.4396C19.1754 45.5966 17.8305 46.5965 16.3745 47.4151C14.6079 48.2986 12.6888 48.8416 10.7187 49.0154C10.8281 48.822 10.9243 48.6286 11.0217 48.4461C13.1851 44.4628 13.7685 40.889 12.7717 37.7248C9.21373 34.9426 7.0842 31.3869 7.0842 27.4989C7.0842 18.5907 18.3214 11.374 32.1759 11.374C46.0304 11.374 57.2675 18.5907 57.2675 27.4989C57.2675 36.407 46.0304 43.6009 32.1759 43.6009ZM20.1381 31.3337C19.1447 31.3477 18.1863 30.9699 17.4729 30.2833C16.7594 29.5966 16.3491 28.6571 16.3318 27.6705C16.2553 22.7395 23.7507 22.632 23.8262 27.5521V27.6075C23.8308 28.0929 23.739 28.5745 23.5561 29.0247C23.3732 29.4748 23.1028 29.8848 22.7603 30.231C22.4177 30.5773 22.0098 30.8531 21.5599 31.0427C21.11 31.2323 20.6268 31.3319 20.1381 31.3359V31.3337ZM28.2067 27.6705C28.1202 22.7395 35.6157 22.6211 35.7021 27.5412V27.6075C35.7448 32.5048 28.2931 32.558 28.2067 27.6705ZM43.8888 31.3337C42.8954 31.3477 41.9368 30.97 41.2232 30.2834C40.5096 29.5967 40.099 28.6572 40.0815 27.6705C40.006 22.7395 47.5014 22.632 47.5769 27.5521V27.6075C47.5831 28.0933 47.4925 28.5756 47.3101 29.0265C47.1278 29.4774 46.8574 29.8879 46.5146 30.2345C46.1717 30.5811 45.7632 30.8569 45.3125 31.0459C44.8619 31.2349 44.378 31.3335 43.8888 31.3359V31.3337Z" fill="black"/>
</svg>
