<svg width="48" height="48" viewBox="0 0 48 48" fill="none" xmlns="http://www.w3.org/2000/svg">
<path d="M43.5 0H4.5C2.01562 0 0 2.30357 0 5.14286V42.8571C0 45.6964 2.01562 48 4.5 48H43.5C45.9844 48 48 45.6964 48 42.8571V5.14286C48 2.30357 45.9844 0 43.5 0ZM35.6625 31.125C36.1125 31.6393 36.1125 32.475 35.6625 32.9893L31.8656 37.3286C31.4156 37.8429 30.6844 37.8429 30.2344 37.3286L24 30.1393L17.7656 37.3286C17.3156 37.8429 16.5844 37.8429 16.1344 37.3286L12.3375 32.9893C11.8875 32.475 11.8875 31.6393 12.3375 31.125L18.6281 24L12.3375 16.875C11.8875 16.3607 11.8875 15.525 12.3375 15.0107L16.1344 10.6714C16.5844 10.1571 17.3156 10.1571 17.7656 10.6714L24 17.8607L30.2344 10.6714C30.6844 10.1571 31.4156 10.1571 31.8656 10.6714L35.6625 15.0107C36.1125 15.525 36.1125 16.3607 35.6625 16.875L29.3719 24L35.6625 31.125Z" fill="black"/>
</svg>
