<svg width="65" height="54" viewBox="0 0 65 54" fill="none" xmlns="http://www.w3.org/2000/svg">
<path d="M64.1698 33.4887L58.3381 30.8105C58.9267 28.2847 58.9267 25.6936 58.3381 23.1678L64.1698 20.4895C64.8405 20.1847 65.1417 19.5533 64.9227 18.9654C63.4032 15.0896 60.8159 11.5839 57.4346 8.6662C56.9144 8.21983 56.0657 8.11096 55.4086 8.4158L49.5769 11.094C47.1265 9.41741 44.3065 8.12185 41.2538 7.27266V1.92711C41.2538 1.31744 40.7199 0.78397 39.967 0.653325C34.943 -0.239413 29.7958 -0.195865 25.0182 0.653325C24.2652 0.78397 23.7314 1.31744 23.7314 1.92711V7.28354C20.6923 8.14362 17.8723 9.43918 15.4082 11.1049L9.59024 8.42668C8.91946 8.12185 8.08441 8.21983 7.56422 8.67709C4.18294 11.5839 1.59565 15.0896 0.0761293 18.9762C-0.15659 19.5641 0.158265 20.1956 0.829045 20.5004L6.66072 23.1786C6.07207 25.7044 6.07207 28.2956 6.66072 30.8214L0.829045 33.4996C0.158265 33.8044 -0.142901 34.4359 0.0761293 35.0238C1.59565 38.8995 4.18294 42.4052 7.56422 45.3229C8.08441 45.7693 8.93315 45.8782 9.59024 45.5733L15.4219 42.8951C17.8723 44.5717 20.6923 45.8673 23.7451 46.7165V52.0729C23.7451 52.6826 24.2789 53.216 25.0319 53.3467C30.0559 54.2394 35.2031 54.1959 39.9806 53.3467C40.7336 53.216 41.2674 52.6826 41.2674 52.0729V46.7165C44.3065 45.8564 47.1265 44.5608 49.5906 42.8951L55.4223 45.5733C56.093 45.8782 56.9281 45.7802 57.4483 45.3229C60.8296 42.4161 63.4169 38.9104 64.9364 35.0238C65.1417 34.425 64.8405 33.7935 64.1698 33.4887ZM32.4926 35.6988C26.4555 35.6988 21.5411 31.7903 21.5411 26.9891C21.5411 22.1879 26.4555 18.2795 32.4926 18.2795C38.5296 18.2795 43.4441 22.1879 43.4441 26.9891C43.4441 31.7903 38.5296 35.6988 32.4926 35.6988Z" fill="black"/>
</svg>
