<svg width="89" height="78" viewBox="0 0 89 78" fill="none" xmlns="http://www.w3.org/2000/svg">
<path d="M89 19.5V69.6429C89 74.2567 85.2627 78 80.6562 78H8.34375C3.7373 78 0 74.2567 0 69.6429V19.5C0 14.8862 3.7373 11.1429 8.34375 11.1429H23.6406L25.7787 5.41473C26.9955 2.15893 30.107 0 33.5836 0H55.399C58.8756 0 61.9871 2.15893 63.2039 5.41473L65.3594 11.1429H80.6562C85.2627 11.1429 89 14.8862 89 19.5ZM65.3594 44.5714C65.3594 33.0455 56.0074 23.6786 44.5 23.6786C32.9926 23.6786 23.6406 33.0455 23.6406 44.5714C23.6406 56.0973 32.9926 65.4643 44.5 65.4643C56.0074 65.4643 65.3594 56.0973 65.3594 44.5714ZM59.7969 44.5714C59.7969 53.0156 52.9307 59.8929 44.5 59.8929C36.0693 59.8929 29.2031 53.0156 29.2031 44.5714C29.2031 36.1272 36.0693 29.25 44.5 29.25C52.9307 29.25 59.7969 36.1272 59.7969 44.5714Z" fill="black"/>
</svg>
