<svg width="22" height="22" viewBox="0 0 22 22" fill="none" xmlns="http://www.w3.org/2000/svg">
<path d="M19.5312 0H2.34375C1.0498 0 0 1.0498 0 2.34375V19.5312C0 20.8252 1.0498 21.875 2.34375 21.875H19.5312C20.8252 21.875 21.875 20.8252 21.875 19.5312V2.34375C21.875 1.0498 20.8252 0 19.5312 0ZM19.2139 15.376C19.043 15.7715 18.3301 16.0596 17.0264 16.2646C16.958 16.3574 16.9043 16.7432 16.8164 17.041C16.7627 17.2217 16.6357 17.3291 16.4209 17.3291H16.4111C16.1084 17.3291 15.7861 17.1875 15.1514 17.1875C14.292 17.1875 13.9941 17.3828 13.3252 17.8564C12.6172 18.3594 11.9385 18.7891 10.9229 18.7451C9.89746 18.8232 9.03809 18.1982 8.55469 17.8564C7.88086 17.3828 7.58789 17.1875 6.72852 17.1875C6.11816 17.1875 5.73242 17.3389 5.46875 17.3389C5.20508 17.3389 5.10254 17.1777 5.06348 17.0459C4.97559 16.748 4.92188 16.3574 4.85352 16.2646C4.17969 16.1621 2.66602 15.8984 2.63184 15.2197C2.62207 15.0439 2.74414 14.8877 2.91992 14.8584C5.18066 14.4873 6.19629 12.168 6.24023 12.0703C6.24023 12.0654 6.24512 12.0605 6.25 12.0557C6.37207 11.8115 6.39648 11.6064 6.32813 11.4453C6.16211 11.0596 5.4541 10.9229 5.15625 10.8008C4.38477 10.498 4.27734 10.1465 4.32617 9.90723C4.4043 9.49219 5.0293 9.2334 5.39551 9.4043C5.68359 9.54102 5.94238 9.60938 6.16211 9.60938C6.32324 9.60938 6.43066 9.57031 6.48438 9.54102C6.41602 8.37402 6.25488 6.70898 6.66992 5.77637C7.76856 3.32031 10.0928 3.125 10.7764 3.125C10.8057 3.125 11.0742 3.12012 11.1035 3.12012C12.7979 3.12012 14.4238 3.98926 15.2197 5.77148C15.6348 6.7041 15.4736 8.36426 15.4053 9.53613C15.459 9.56543 15.5469 9.59961 15.6836 9.60449C15.8936 9.59473 16.1328 9.52637 16.4014 9.39941C16.5967 9.30664 16.8701 9.32129 17.0654 9.39941C17.373 9.51172 17.5684 9.73145 17.5732 9.98047C17.5781 10.2979 17.2949 10.5713 16.7334 10.791C16.665 10.8203 16.582 10.8447 16.4941 10.874C16.1768 10.9766 15.6934 11.1279 15.5664 11.4355C15.498 11.5967 15.5273 11.8018 15.6445 12.0459C15.6494 12.0508 15.6494 12.0557 15.6543 12.0605C15.6982 12.1582 16.7139 14.4775 18.9746 14.8486C19.1699 14.8975 19.3213 15.1172 19.2139 15.376Z" fill="black"/>
</svg>
