<svg width="44" height="44" viewBox="0 0 44 44" fill="none" xmlns="http://www.w3.org/2000/svg">
<path d="M22 44C9.84677 44 0 34.1532 0 22C0 9.84677 9.84677 0 22 0C34.1532 0 44 9.84677 44 22C44 34.1532 34.1532 44 22 44ZM32.2903 18.0968H22V11.8073C22 10.8581 20.8468 10.379 20.1815 11.0532L10.0419 21.246C9.625 21.6629 9.625 22.3282 10.0419 22.7452L20.1815 32.9379C20.8556 33.6121 22 33.1331 22 32.1839V25.9032H32.2903C32.8758 25.9032 33.3548 25.4242 33.3548 24.8387V19.1613C33.3548 18.5758 32.8758 18.0968 32.2903 18.0968Z" fill="black"/>
</svg>
